# xmcd
#
# Track frame offsets:
#	150
#	17551
#	35177
#	51574
#	66235
#	84911
#	102237
#	119638
#	137264
#	153661
#	168322
#	186998
#
# Disc length: 2724
#
# Revision: 2
# Processed by: cddbd v1.5.2PL0 Copyright (c) Steve Scherf et al.
# Submitted via: kJams Lite (development) 1.0patch49.47
#
DISCID=a60aa20c
DTITLE=Misc - CB20008
DYEAR=2000
DGENRE=Country
TTITLE0=McGraw, Tim - Just To see You Smile Guide Vocals
TTITLE1=Parnell, Lee Roy - You Can't get There From Here Guide Vocals
TTITLE2=Tillis, Pam - The Land Of The Liviing Guide Vocals
TTITLE3=Moore, Jeff - Wrangler Butts Guide Vocals
TTITLE4=Sawyer Brown - This Night I Won't Forget Guide Vocals
TTITLE5=Graham, Tammy - Cool Water Guide Vocals
TTITLE6=McGraw, Tim - Just To See You Smile
TTITLE7=Parnell, Lee Roy - You Can't Get There From Here
TTITLE8=Tillis, Pam - The Land Of The Liviing
TTITLE9=Moore, Jeff - Wrangler Butts
TTITLE10=Sawyer Brown - This Night I Won't Forget
TTITLE11=Graham, Tammy - Cool Water
EXTD=
EXTT0=
EXTT1=
EXTT2=
EXTT3=
EXTT4=
EXTT5=
EXTT6=
EXTT7=
EXTT8=
EXTT9=
EXTT10=
EXTT11=
PLAYORDER=
